<svg width="35" height="35" viewBox="0 0 35 35" fill="none" xmlns="http://www.w3.org/2000/svg">
<ellipse cx="17.3391" cy="17.932" rx="16.885" ry="17.0458" fill="#FC7EE4"/>
<path d="M22.8835 20.1991C22.8835 20.4468 22.81 20.6889 22.6724 20.8948C22.5348 21.1008 22.3392 21.2613 22.1104 21.3561C21.8816 21.4509 21.6298 21.4757 21.3868 21.4274C21.1439 21.379 20.9207 21.2598 20.7456 21.0846C20.5705 20.9095 20.4512 20.6863 20.4029 20.4434C20.3545 20.2005 20.3793 19.9487 20.4741 19.7198C20.5689 19.491 20.7294 19.2954 20.9354 19.1578C21.1413 19.0202 21.3835 18.9467 21.6311 18.9467C21.9633 18.9467 22.2818 19.0787 22.5167 19.3135C22.7515 19.5484 22.8835 19.8669 22.8835 20.1991ZM14.1171 18.9467C13.8694 18.9467 13.6273 19.0202 13.4213 19.1578C13.2154 19.2954 13.0548 19.491 12.9601 19.7198C12.8653 19.9487 12.8405 20.2005 12.8888 20.4434C12.9371 20.6863 13.0564 20.9095 13.2315 21.0846C13.4067 21.2598 13.6298 21.379 13.8728 21.4274C14.1157 21.4757 14.3675 21.4509 14.5963 21.3561C14.8252 21.2613 15.0208 21.1008 15.1584 20.8948C15.296 20.6889 15.3694 20.4468 15.3694 20.1991C15.3694 19.8669 15.2375 19.5484 15.0026 19.3135C14.7678 19.0787 14.4492 18.9467 14.1171 18.9467ZM29.5627 12.2676V20.6165C29.5605 22.6087 28.7681 24.5186 27.3594 25.9273C25.9507 27.336 24.0408 28.1284 22.0486 28.1306H13.6996C11.7074 28.1284 9.7975 27.336 8.38881 25.9273C6.98013 24.5186 6.18776 22.6087 6.18555 20.6165V12.2676C6.18395 11.4536 6.47969 10.667 7.01719 10.0557C7.55469 9.44447 8.29694 9.05054 9.10444 8.948C9.91194 8.84546 10.7291 9.04137 11.4023 9.49891C12.0755 9.95645 12.5585 10.6441 12.7604 11.4327H22.9879C23.1897 10.6441 23.6727 9.95645 24.3459 9.49891C25.0191 9.04137 25.8363 8.84546 26.6438 8.948C27.4513 9.05054 28.1935 9.44447 28.731 10.0557C29.2685 10.667 29.5643 11.4536 29.5627 12.2676ZM25.3882 19.7816C25.3882 18.8959 25.0363 18.0465 24.41 17.4202C23.7837 16.7939 22.9343 16.442 22.0486 16.442H13.6996C12.8139 16.442 11.9645 16.7939 11.3382 17.4202C10.7119 18.0465 10.36 18.8959 10.36 19.7816V20.6165C10.36 21.5022 10.7119 22.3517 11.3382 22.978C11.9645 23.6043 12.8139 23.9561 13.6996 23.9561H22.0486C22.9343 23.9561 23.7837 23.6043 24.41 22.978C25.0363 22.3517 25.3882 21.5022 25.3882 20.6165V19.7816Z" fill="black"/>
</svg>
