<svg width="100" height="100" viewBox="0 0 100 100" fill="none" xmlns="http://www.w3.org/2000/svg">
<path fill-rule="evenodd" clip-rule="evenodd" d="M49.9999 91.6668C73.0124 91.6668 91.6666 73.0127 91.6666 50.0002C91.6666 26.9877 73.0124 8.3335 49.9999 8.3335C26.9874 8.3335 8.33325 26.9877 8.33325 50.0002C8.33325 73.0127 26.9874 91.6668 49.9999 91.6668ZM58.4583 35.2918C59.0435 35.8778 59.3722 36.672 59.3722 37.5002C59.3722 38.3283 59.0435 39.1226 58.4583 39.7085L48.1666 50.0002L58.4583 60.2918C58.7653 60.5779 59.0115 60.9229 59.1823 61.3063C59.3531 61.6896 59.445 62.1034 59.4524 62.523C59.4598 62.9426 59.3826 63.3594 59.2254 63.7485C59.0683 64.1376 58.8343 64.4911 58.5376 64.7878C58.2408 65.0846 57.8874 65.3185 57.4982 65.4757C57.1091 65.6329 56.6923 65.71 56.2727 65.7026C55.8532 65.6952 55.4393 65.6034 55.056 65.4326C54.6727 65.2618 54.3277 65.0155 54.0416 64.7085L41.5416 52.2085C40.9564 51.6226 40.6277 50.8283 40.6277 50.0002C40.6277 49.172 40.9564 48.3778 41.5416 47.7918L54.0416 35.2918C54.6275 34.7066 55.4218 34.3779 56.2499 34.3779C57.078 34.3779 57.8723 34.7066 58.4583 35.2918Z" fill="#bbb"/>
</svg>
